<?xml version="1.0" standalone="no"?>
<!DOCTYPE svg PUBLIC "-//W3C//DTD SVG 1.1//EN" "http://www.w3.org/Graphics/SVG/1.1/DTD/svg11.dtd">
<svg xmlns="http://www.w3.org/2000/svg">
<metadata>Generated by Fontastic.me</metadata>
<defs>
<font id="untitled-font-1" horiz-adv-x="512">
<font-face font-family="untitled-font-1" units-per-em="512" ascent="480" descent="-32"/>
<missing-glyph horiz-adv-x="512" />

<glyph glyph-name="placepass-icons-pp-edit" unicode="&#98;" d="M504 469l-35 36c-10 9-26 9-35 0l-53-53 70-71 53 53c10 10 10 26 0 35z m-68-419l-385 0 0 386 279 0 50 50-355 0c-13 0-25-11-25-25l0-436c0-14 12-25 25-25l436 0c14 0 25 11 25 25l0 354-50-51z m-2 313l-71 71-212-212 70-71z m-325-253l95 24-71 71z"/>
<glyph glyph-name="placepass-icons-pp-export" unicode="&#99;" d="M186 384c7 0 13 3 18 8l0 0 30 33 0-145c0-13 11-24 24-24 13 0 24 11 24 24l0 145 30-33c5-5 11-8 18-8 13 0 24 11 24 24 0 6-2 12-6 16l0 0-72 80c-5 5-11 8-18 8-7 0-14-3-18-8l0 0-72-80 0 0c-4-4-6-10-6-16 0-13 11-24 24-24z m224-32l-104 0 0-48 80 0 0-256-256 0 0 256 72 0 0 48-96 0c-13 0-24-11-24-24l0-304c0-13 11-24 24-24l304 0c13 0 24 11 24 24l0 304c0 13-11 24-24 24z"/>
<glyph glyph-name="placepass-icons-pp-info" unicode="&#100;" d="M256 0c-141 0-256 115-256 256 0 141 115 256 256 256 141 0 256-115 256-256 0-141-115-256-256-256z m-61 273c0-3 0-12 0-17l26 31c6 6 12 10 15 9 3-1 5-5 4-8l-43-141c-5-16 4-33 27-36 33 0 53 22 72 51 0 4 1 13 1 18l-26-31c-6-6-12-10-15-9-3 1-5 4-4 7l43 142c3 18-6 34-27 37-21-1-53-24-73-53z m95 131c-16 0-29-11-29-29 0-17 13-29 29-29 17 0 30 12 30 29 0 18-13 29-30 29z"/>
<glyph glyph-name="placepass-icons-pp-map" unicode="&#101;" d="M478 0l-171 0c-19 0-34 15-34 34l0 171c0 19 15 34 34 34l171 0c19 0 34-15 34-34l0-171c0-19-15-34-34-34z m0 273l-171 0c-19 0-34 15-34 34l0 171c0 19 15 34 34 34l171 0c19 0 34-15 34-34l0-171c0-19-15-34-34-34z m-273-273l-171 0c-19 0-34 15-34 34l0 171c0 19 15 34 34 34l171 0c19 0 34-15 34-34l0-171c0-19-15-34-34-34z m0 273l-171 0c-19 0-34 15-34 34l0 171c0 19 15 34 34 34l171 0c19 0 34-15 34-34l0-171c0-19-15-34-34-34z"/>
<glyph glyph-name="placepass-icons-pp-notify" unicode="&#102;" d="M20 69l0 32 69 56 0 158c0 82 59 151 137 165l0 12c0 11 9 20 20 20l20 0c11 0 20-9 20-20l0-12c78-14 138-83 138-165l0-158 68-56 0-32z m236-69c-27 0-49 22-49 49l98 0c0-27-22-49-49-49z"/>
<glyph glyph-name="placepass-icons-pp-play" unicode="&#103;" d="M491 432c-72 10-152 16-235 16-83 0-163-6-235-16-13-54-21-113-21-176 0-63 8-122 21-176 72-10 152-16 235-16 83 0 163 6 235 16 13 54 21 113 21 176 0 63-8 122-21 176z m-299-272l0 192 160-96z"/>
<glyph glyph-name="placepass-icons-pp-plus" unicode="&#104;" d="M290 290l0 188c0 9-4 18-10 24-13 13-35 13-48 0-6-6-10-15-10-24l0-188-188 0c-9 0-18-4-24-10-13-13-13-35 0-48 6-6 15-10 24-10l188 0 0-188c0-9 4-18 10-24 13-13 35-13 48 0 6 6 10 15 10 24l0 188 188 0c9 0 18 4 24 10 13 13 13 35 0 48-6 6-15 10-24 10z"/>
<glyph glyph-name="placepass-icons-pp-caret-left" unicode="&#97;" d="M356 66c15-15 15-40 0-55-15-15-39-15-54 0l-213 218c-15 15-15 39 0 54l213 218c15 15 39 15 54 0 15-15 15-40 0-55l-175-190z"/>
<glyph glyph-name="placepass-icons-pp-caret-right" unicode="&#105;" d="M130 446c-15 15-15 40 0 55 15 15 39 15 54 0l213-218c15-15 15-39 0-54l-213-218c-15-15-39-15-54 0-15 15-15 40 0 55l175 190z"/>
<glyph glyph-name="placepass-icons-pp-caret-up" unicode="&#106;" d="M66 122c-15-14-40-14-55 0-15 15-15 40 0 54l218 214c15 14 39 14 54 0l218-214c15-14 15-39 0-54-15-14-40-14-55 0l-190 175z"/>
<glyph glyph-name="placepass-icons-pp-check" unicode="&#107;" d="M507 398l-45 45c-6 7-17 7-23 0l-232-245-133 133c-7 7-17 7-23 0l-46-46c-7-6-7-16 0-23l189-193c4-4 9-6 13-5 5-1 10 1 14 5l286 306c7 7 7 17 0 23z"/>
<glyph glyph-name="placepass-icons-pp-copy" unicode="&#108;" d="M268 382l0 130-123 0c-12 0-23-10-23-23l0-397c0-13 11-23 23-23l290 0c13 0 23 10 23 23l0 244-145 0c-25 0-45 20-45 46z m45-23l145 0-168 153 0-130c0-13 11-23 23-23z m-229-283l0 375c-13 0-30-11-30-23l0-375c0-25 28-53 53-53l267 0c13 0 23 18 23 30l-267 0c-25 1-46 21-46 46z"/>
<glyph glyph-name="placepass-icons-pp-profile" unicode="&#109;" d="M253 512c-141 0-256-115-256-256 0-141 115-256 256-256 142 0 256 115 256 256 0 141-114 256-256 256z m154-395c-30 14-19 3-58 19-40 17-50 22-50 22l0 38c0 0 15 11 19 47 10-2 13 11 14 20 0 9 5 35-6 33 2 17 4 33 3 41-3 30-23 61-75 63-45-2-73-33-76-63-1-8 1-24 3-41-11 2-6-24-6-33 1-9 4-22 13-20 5-36 20-47 20-47l0-38c0 0-10-6-50-23-40-16-29-4-59-18-33 36-54 85-54 139 0 115 94 208 208 208 115 0 208-93 208-208 0-54-20-103-54-139z"/>
<glyph glyph-name="placepass-icons-pp-remove" unicode="&#110;" d="M368 344c0 13-11 24-24 24-7 0-13-3-17-7l-71-71-71 71c-4 4-10 7-17 7-13 0-24-11-24-24 0-7 3-13 7-17l71-71-71-71c-4-4-7-10-7-17 0-13 11-24 24-24 7 0 13 3 17 7l71 71 71-71c5-4 11-7 17-7 14 0 24 11 24 24 0 7-2 13-7 17l-71 71 71 71c4 4 7 10 7 17z m144-88c0-141-115-256-256-256-141 0-256 115-256 256 0 141 115 256 256 256 141 0 256-115 256-256z"/>
<glyph glyph-name="placepass-icons-pp-search" unicode="&#111;" d="M496 76l-121 103c-13 12-26 17-37 16 29 34 46 78 46 125 0 106-86 192-192 192-106 0-192-86-192-192 0-106 86-192 192-192 48 0 91 17 125 46-1-11 4-24 16-37l103-121c17-20 46-21 64-4 17 18 16 47-4 64z m-304 116c-71 0-128 57-128 128 0 71 57 128 128 128 71 0 128-57 128-128 0-71-57-128-128-128z"/>
<glyph glyph-name="placepass-icons-pp-share" unicode="&#112;" d="M427 188c-30 0-56-15-71-38l-187 91c1 5 2 10 2 15 0 9-2 17-4 24l196 73c15-18 38-29 64-29 47 0 85 38 85 86 0 47-38 85-85 85-47 0-86-38-86-85 0-4 1-7 1-10l-205-76c-14 11-32 17-52 17-47 0-85-38-85-85 0-47 38-85 85-85 24 0 45 9 61 25l196-96c1-46 38-83 85-83 47 0 85 38 85 85 0 48-38 86-85 86z"/>
<glyph glyph-name="placepass-icons-pp-caret-down" unicode="&#113;" d="M446 390c15 14 40 14 55 0 15-15 15-40 0-54l-218-214c-15-14-39-14-54 0l-218 214c-15 14-15 39 0 54 15 14 40 14 55 0l190-175z"/>
<glyph glyph-name="placepass-icons-pp-users" unicode="&#114;" d="M327 180c-29 14-18 3-54 18-36 15-45 20-45 20l0 34c0 0 13 11 17 43 9-2 12 10 12 18 1 8 5 31-5 29 2 16 4 30 3 38-3 27-21 55-68 56-40-2-65-29-68-56-1-8 1-22 3-38-10 2-6-21-5-29 0-8 3-20 11-18 5-32 18-43 18-43l0-34c0 0-9-5-45-20-36-15-25-3-54-18-47-23-47-87-47-87 0-10 8-17 18-17l338 0c10 0 18 7 18 17 0 0 0 64-47 87z m185-88c0 0 0 57-42 78-27 14-17 4-50 17-33 14-41 18-41 18l0 32c0 0 12 9 16 38 8-2 11 9 11 17 0 6 4 28-5 26 2 15 3 28 3 35-2 24-19 49-62 51-36-2-59-27-62-51 0-7 1-20 3-35-9 2-5-20-5-26 1-8 3-19 11-17 4-29 16-39 16-39l0-31c11-3 13 0 35-12 53-26 53-98 53-98 0-9-7-17-16-19l119 0c9 0 16 7 16 16 0-1 0-1 0 0z"/>
<glyph glyph-name="placepass-icons-pp-email" unicode="&#115;" d="M494 420l-487 0c-4 0-7-3-7-7l0-314c0-4 3-7 7-7l498 0c4 0 7 3 7 7l0 314c0 4-3 7-7 7z m-47-28c6 0 9-8 5-12l-179-171c-9-9-25-9-34 0l-179 171c-4 4-1 12 5 12z m-415-20l109-109c2-3 2-7 0-9l-109-108c-4-5-12-2-12 4l0 218c0 6 8 9 12 4z m33-240l98 100c3 2 7 2 10 0l52-52c8-8 19-13 31-13 12 0 23 5 31 13l52 52c3 2 7 2 10 0l98-100c4-4 1-12-5-12l-372 0c-6 0-9 8-5 12z m415 13l-110 108c-2 3-2 7 0 10l110 109c4 4 12 1 12-5l0-217c0-7-8-10-12-5z"/>
<glyph glyph-name="placepass-icons-pp-insight" unicode="&#116;" d="M184 21c20-13 43-22 72-21 28-1 52 8 72 21l0 53-144 0z m141 84c0 111 119 147 110 258-6 70-53 149-179 149-126 0-173-79-179-149-9-111 110-147 110-258z m-193 254c5 67 50 100 124 100 74 0 119-33 124-100 3-36-18-61-46-100-21-30-45-64-57-109l-42 0c-12 45-36 79-57 109-28 39-49 64-46 100z"/>
<glyph glyph-name="placepass-icons-pp-legend" unicode="&#117;" d="M500 509c-17 18-33 1-89-26-148-72-406-220-406-220l222-32 31-226c0 0 145 263 217 414 26 56 43 73 25 90z m-53-58l-161-305-17 139z"/>
<glyph glyph-name="placepass-icons-pp-warning" unicode="&#118;" d="M502 30c-11-18-32-30-54-30l-384 0c-22 0-43 12-54 30-12 19-13 43-3 63l192 384c11 21 33 35 57 35 24 0 46-14 57-35l192-384c10-20 9-44-3-63z m-214 338c0 9-7 16-16 16l-32 0c-9 0-16-7-16-16l0-160c0-9 7-16 16-16l32 0c9 0 16 7 16 16z m0-256c0 9-7 16-16 16l-32 0c-9 0-16-7-16-16l0-32c0-9 7-16 16-16l32 0c9 0 16 7 16 16z"/>
<glyph glyph-name="placepass-icons-pp-winning" unicode="&#119;" d="M290 135c0 40 31 63 82 96 62 40 140 90 140 210 0 11-9 19-20 19l-98 0c-13 25-55 52-138 52-83 0-125-27-138-52l-98 0c-11 0-20-8-20-19 0-120 78-170 140-210 51-33 82-56 82-96l0-37c-53-5-92-25-92-48 0-27 56-50 126-50 70 0 127 23 127 50 0 23-40 43-93 48l0 37z m79 140c16 34 28 79 30 146l72 0c-7-75-53-113-102-146z m-113 203c78 0 108-31 108-43 0-11-30-42-108-42-78 0-108 31-108 42 0 12 30 43 108 43z m-215-56l71 0c2-68 15-113 31-146-49 32-95 70-102 146z"/>
<glyph glyph-name="placepass-icons-pp-export-24" unicode="&#120;" d="M281 219l0-119 231 174-231 168 0-105c-281 0-281-267-281-267 79 126 128 149 281 149z"/>
<glyph glyph-name="placepass-icons-pp-slide-arrow" unicode="&#121;" d="M247 512l-1-129-236 0 0-254 237 0-1-129 256 256z"/>
<glyph glyph-name="placepass-icons-pp-positive" unicode="&#122;" d="M256 512c-141 0-256-115-256-256 0-141 115-256 256-256 141 0 256 115 256 256 0 141-115 256-256 256z m97-184c13 0 24-10 24-23 0-14-11-24-24-24-13 0-24 10-24 24 0 13 11 23 24 23z m-182 0c13 0 24-10 24-23 0-14-11-24-24-24-13 0-24 10-24 24 0 13 11 23 24 23z m220-137c-23-54-74-88-134-88 0 0 0 0 0 0-61 0-112 34-135 88-2 3-1 6 0 9 2 3 5 5 9 5l251 0c3 0 6-2 8-5 2-3 3-6 1-9z"/>
<glyph glyph-name="placepass-icons-pp-neutral" unicode="&#65;" d="M256 512c-141 0-256-115-256-256 0-141 115-256 256-256 141 0 256 115 256 256 0 141-115 256-256 256z m91-185c13 0 24-11 24-24 0-13-11-24-24-24-13 0-24 11-24 24 0 13 11 24 24 24z m-182 0c13 0 24-11 24-24 0-13-11-24-24-24-13 0-24 11-24 24 0 13 11 24 24 24z m200-165l-218 0c-6 0-11 5-11 12 0 6 5 11 11 11l218 0c6 0 11-5 11-11 0-7-5-12-11-12z"/>
<glyph glyph-name="placepass-icons-pp-negative" unicode="&#66;" d="M256 512c-141 0-256-115-256-256 0-141 115-256 256-256 141 0 256 115 256 256 0 141-115 256-256 256z m97-182c13 0 24-11 24-24 0-13-11-24-24-24-13 0-24 11-24 24 0 13 11 24 24 24z m-194 0c13 0 24-11 24-24 0-13-11-24-24-24-13 0-24 11-24 24 0 13 11 24 24 24z m221-196c-1-1-3-1-4-1-5 0-9 3-11 7-18 43-59 69-107 69 0 0 0 0 0 0-48 0-89-26-107-69-2-6-9-9-15-6-6 3-9 9-6 15 22 52 71 84 128 84 0 0 0 0 0 0 58 0 107-32 129-84 2-6-1-13-7-15z"/>
<glyph glyph-name="placepass-icons-pp-negative-1" unicode="&#67;" d="M256 512c-141 0-256-115-256-256 0-141 115-256 256-256 141 0 256 115 256 256 0 141-115 256-256 256z m97-182c13 0 24-11 24-24 0-13-11-24-24-24-13 0-24 11-24 24 0 13 11 24 24 24z m-194 0c13 0 24-11 24-24 0-13-11-24-24-24-13 0-24 11-24 24 0 13 11 24 24 24z m221-196c-1-1-3-1-4-1-5 0-9 3-11 7-18 43-59 69-107 69 0 0 0 0 0 0-48 0-89-26-107-69-2-6-9-9-15-6-6 3-9 9-6 15 22 52 71 84 128 84 0 0 0 0 0 0 58 0 107-32 129-84 2-6-1-13-7-15z"/>
<glyph glyph-name="placepass-icons-pp-positive-1" unicode="&#68;" d="M256 512c-141 0-256-115-256-256 0-141 115-256 256-256 141 0 256 115 256 256 0 141-115 256-256 256z m97-184c13 0 24-10 24-23 0-14-11-24-24-24-13 0-24 10-24 24 0 13 11 23 24 23z m-182 0c13 0 24-10 24-23 0-14-11-24-24-24-13 0-24 10-24 24 0 13 11 23 24 23z m220-137c-23-54-74-88-134-88 0 0 0 0 0 0-61 0-112 34-135 88-2 3-1 6 0 9 2 3 5 5 9 5l251 0c3 0 6-2 8-5 2-3 3-6 1-9z"/>
<glyph glyph-name="placepass-icons-pp-slide-arrow-1" unicode="&#69;" d="M247 512l-1-129-236 0 0-254 237 0-1-129 256 256z"/>
<glyph glyph-name="placepass-icons-pp-neutral-1" unicode="&#70;" d="M256 512c-141 0-256-115-256-256 0-141 115-256 256-256 141 0 256 115 256 256 0 141-115 256-256 256z m91-185c13 0 24-11 24-24 0-13-11-24-24-24-13 0-24 11-24 24 0 13 11 24 24 24z m-182 0c13 0 24-11 24-24 0-13-11-24-24-24-13 0-24 11-24 24 0 13 11 24 24 24z m200-165l-218 0c-6 0-11 5-11 12 0 6 5 11 11 11l218 0c6 0 11-5 11-11 0-7-5-12-11-12z"/>
<glyph glyph-name="placepass-icons-pp-discovery" unicode="&#71;" d="M513 131c1-41-18-64-46-78-42-22-85-22-128 1-31 17-48 42-47 77 1 21-2 31-21 22-19-9-34 8-45-1-10-9-2-27-5-41-10-46-69-81-125-73-21 3-40 9-58 21-28 20-41 46-35 81 5 32 11 64 18 96 3 18 11 34 26 43 15 10 19 24 21 39 2 12 3 24 4 36 6 39 29 60 70 64 45 3 79-16 90-53 2-9 6-10 13-10 19 0 37-4 44 25 7 27 54 44 90 37 39-7 65-31 63-62 0-11 3-22 4-33 3-18 6-34 24-45 9-5 17-15 19-26 11-42 19-84 24-120z m-115-57c31-1 48 4 63 18 25 21 24 45-1 65-29 24-86 24-115 0-22-18-22-47 0-65 16-14 27-19 53-18z m-290 0c24-1 45 4 63 19 19 16 20 42 3 59-30 31-96 31-126-1-17-18-17-37 1-54 16-18 37-24 59-23z m150 150c-21 0-28-4-29-19 0-17 15-20 29-20 14 0 28 4 28 19-1 16-9 20-28 20z m-97 252c27 0 48-18 48-40 0-13-4-20-19-15-19 6-38 10-59 5-13-3-17 4-15 17 4 18 22 32 45 33z m145-38c0 20 20 36 45 38 23 1 45-15 48-35 2-11-3-18-15-15-20 5-39 0-59-4-15-4-20 0-19 16z"/>
<glyph glyph-name="placepass-icons-pp-info-new" unicode="&#72;" d="M163 284c0-6-1-21 0-30l42 54c9 10 18 17 24 15 5-2 8-8 6-14l-69-246c-8-28 7-57 43-63 54 0 86 39 118 90 0 6 2 21 0 31l-41-54c-9-11-20-18-25-16-5 2-8 8-7 13l70 247c6 31-10 59-43 63-35 0-87-40-118-90z m154 228c-26 0-48-21-48-51 0-30 22-51 48-51 27 0 48 21 48 51 0 30-21 51-48 51z"/>
<glyph glyph-name="placepass-icons-pp-move-up" unicode="&#73;" d="M240 392l-199-207 158 0 0-185 116 0 0 187 156 0-199 205c-9 11-23 11-32 0z m-226 52l484 0c6 0 11 4 11 9l0 50c0 5-5 9-11 9l-484 0c-6 0-11-4-11-9l0-50c0-5 5-9 11-9z"/>
</font>
</defs>
</svg>
